<svg xmlns="http://www.w3.org/2000/svg" viewBox="0 0 166.16 162.85">
    <defs>
        <style>
            .outline {
                fill: black;
            }
        </style>
        <linearGradient id="gayGradient" gradientTransform="rotate(90)">
            <stop offset="0%"  stop-color="#FF0018" />

            <stop offset="16.666%" stop-color="#FF0018" />
            <stop offset="16.666%" stop-color="#FFA52C" />

            <stop offset="33.333%" stop-color="#FFA52C" />
            <stop offset="33.333%" stop-color="#FFFF41" />

            <stop offset="50%" stop-color="#FFFF41" />
            <stop offset="50%" stop-color="#008018" />

            <stop offset="66.666%" stop-color="#008018" />
            <stop offset="66.666%" stop-color="#0000F9" />

            <stop offset="83.333%" stop-color="#0000F9" />
            <stop offset="83.333%" stop-color="#86007D" />
        </linearGradient>
    </defs>
    <g>
        <g>
            <path fill="url('#gayGradient')" _class="infill" d="M162.15,121.72a.11.11,0,0,1-.16.14C107.86,94.92,42.77,119.76,6.17,160.4,74.57,98.17,51.84,31.46,20,2.78a1.92,1.92,0,0,0-2.68.13C-2.66,25,.28,70.24,35.08,87.51c41.72,20.71,73-17.15,77.37-37.75,0,0,12.45,21.81,36.19,22.41.86,0,1.07.92.36,1.41-4.14,2.88-15.74,11.85-32.33,11.19C129.46,95.17,155.44,106.57,162.15,121.72Z"/>
            <path class="outline" d="M7.17,162.85a1.45,1.45,0,0,1-1.07-2.41c1-1.12,2-2.24,3.09-3.35,21.15-23.46,31.13-45.6,34.42-65.41a61.05,61.05,0,0,1-11.69-4.42,56.79,56.79,0,0,1-31.14-42C-2,28.38,2.87,11.19,13.54.43a1.45,1.45,0,0,1,2,0c8.29,8.19,28,30.88,31.53,64.84a99.43,99.43,0,0,1-.38,24.2A46.39,46.39,0,0,0,77,85.75C94,77.52,106,60.12,108.53,47.92a1.45,1.45,0,0,1,2.65-.44c.14.23,13.65,22.59,37,22.59l1.23,0a1.42,1.42,0,0,1,1.38.88,1.45,1.45,0,0,1-.35,1.61,53.29,53.29,0,0,1-32.37,12.78,93.15,93.15,0,0,0,11.21,5.77c12.27,5.74,29.07,13.6,36.71,27.45a1.44,1.44,0,0,1-1.93,2c-57.56-30.17-116-.43-152.76,38.55-1,1.11-2,2.23-3.07,3.33A1.43,1.43,0,0,1,7.17,162.85ZM46.3,92.31q-4.24,25.43-21.57,50c36.16-30.78,86-50.06,135.85-26.74-8.07-10.42-22-16.95-32.53-21.87-7.22-3.37-12.92-6-14.94-9a1.42,1.42,0,0,1-.06-1.51,1.38,1.38,0,0,1,1.33-.73c14.49.71,25.82-5.85,31-9.55-18.57-1.27-30.53-15.16-34.87-21.19C106.6,64.23,94.7,80.4,78.29,88.34A49.14,49.14,0,0,1,46.3,92.31ZM14.59,3.51c-9.34,10.17-13.53,25.84-11,41.3A54,54,0,0,0,33.2,84.68a58.48,58.48,0,0,0,10.85,4.13C50.18,43.66,22,11.15,14.59,3.51Z"/>
        </g>
    </g>
</svg>
