<?xml version="1.0" encoding="UTF-8" standalone="no"?>
<!-- Created with Inkscape (http://www.inkscape.org/) -->

<svg
   version="1.1"
   id="svg1"
   width="3333.3333"
   height="3333.3333"
   viewBox="0 0 3333.3333 3333.3333"
   sodipodi:docname="Logo Text Under.svg"
   inkscape:version="1.3.2 (091e20e, 2023-11-25, custom)"
   inkscape:export-filename="Logo Text Under White 1x.png"
   inkscape:export-xdpi="41.784458"
   inkscape:export-ydpi="41.784458"
   xmlns:inkscape="http://www.inkscape.org/namespaces/inkscape"
   xmlns:sodipodi="http://sodipodi.sourceforge.net/DTD/sodipodi-0.dtd"
   xmlns:xlink="http://www.w3.org/1999/xlink"
   xmlns="http://www.w3.org/2000/svg"
   xmlns:svg="http://www.w3.org/2000/svg">
  <defs
     id="defs1">
    <linearGradient
       id="swatch39"
       inkscape:swatch="solid"
       inkscape:label="void-fill">
      <stop
         style="stop-color:#ffffff;stop-opacity:1;"
         offset="0"
         id="stop39" />
    </linearGradient>
    <linearGradient
       id="swatch33"
       inkscape:swatch="solid"
       inkscape:label="fox-fill">
      <stop
         style="stop-color:#f17824;stop-opacity:1;"
         offset="0"
         id="stop33" />
    </linearGradient>
    <linearGradient
       id="swatch28">
      <stop
         style="stop-color:#000000;stop-opacity:1;"
         offset="0"
         id="stop28" />
    </linearGradient>
    <linearGradient
       id="swatch27"
       inkscape:swatch="solid"
       inkscape:label="outline">
      <stop
         style="stop-color:#000000;stop-opacity:1;"
         offset="0"
         id="stop27" />
    </linearGradient>
    <clipPath
       clipPathUnits="userSpaceOnUse"
       id="clipPath3">
      <path
         d="M 0,2500 H 2500 V 0 H 0 Z"
         transform="translate(-533.92291,-483.34669)"
         id="path3" />
    </clipPath>
    <clipPath
       clipPathUnits="userSpaceOnUse"
       id="clipPath5">
      <path
         d="M 0,2500 H 2500 V 0 H 0 Z"
         transform="translate(-823.30862,-396.05081)"
         id="path5" />
    </clipPath>
    <clipPath
       clipPathUnits="userSpaceOnUse"
       id="clipPath7">
      <path
         d="M 0,2500 H 2500 V 0 H 0 Z"
         transform="translate(-1253.0166,-466.44529)"
         id="path7" />
    </clipPath>
    <clipPath
       clipPathUnits="userSpaceOnUse"
       id="clipPath9">
      <path
         d="M 0,2500 H 2500 V 0 H 0 Z"
         transform="translate(-1300.4785,-396.05081)"
         id="path9" />
    </clipPath>
    <clipPath
       clipPathUnits="userSpaceOnUse"
       id="clipPath11">
      <path
         d="M 0,2500 H 2500 V 0 H 0 Z"
         transform="translate(-1750.9863,-662.39554)"
         id="path11" />
    </clipPath>
    <clipPath
       clipPathUnits="userSpaceOnUse"
       id="clipPath13">
      <path
         d="M 0,2500 H 2500 V 0 H 0 Z"
         transform="translate(-1876.1787,-483.34669)"
         id="path13" />
    </clipPath>
    <clipPath
       clipPathUnits="userSpaceOnUse"
       id="clipPath15">
      <path
         d="M 0,2500 H 2500 V 0 H 0 Z"
         transform="translate(-2165.5645,-396.05081)"
         id="path15" />
    </clipPath>
    <clipPath
       clipPathUnits="userSpaceOnUse"
       id="clipPath17">
      <path
         d="M 0,2500 H 2500 V 0 H 0 Z"
         transform="translate(-1814.0187,-1263.2461)"
         id="path17" />
    </clipPath>
    <clipPath
       clipPathUnits="userSpaceOnUse"
       id="clipPath19">
      <path
         d="M 0,2500 H 2500 V 0 H 0 Z"
         transform="translate(-1733.9805,-1793.1445)"
         id="path19" />
    </clipPath>
    <clipPath
       clipPathUnits="userSpaceOnUse"
       id="clipPath21">
      <path
         d="M 0,2500 H 2500 V 0 H 0 Z"
         transform="translate(-1139.1504,-1127.0206)"
         id="path21" />
    </clipPath>
    <clipPath
       clipPathUnits="userSpaceOnUse"
       id="clipPath23">
      <path
         d="M 0,2500 H 2500 V 0 H 0 Z"
         transform="translate(-1333.2306,-1576.5265)"
         id="path23" />
    </clipPath>
    <clipPath
       clipPathUnits="userSpaceOnUse"
       id="clipPath25">
      <path
         d="M 0,2500 H 2500 V 0 H 0 Z"
         transform="translate(-1403.4082,-1817.4385)"
         id="path25" />
    </clipPath>
    <clipPath
       clipPathUnits="userSpaceOnUse"
       id="clipPath27">
      <path
         d="M 0,2500 H 2500 V 0 H 0 Z"
         transform="translate(-1847.7148,-1365.8408)"
         id="path27" />
    </clipPath>
    <linearGradient
       inkscape:collect="always"
       xlink:href="#swatch27"
       id="linearGradient27"
       x1="-1234.5741"
       y1="119.15723"
       x2="49.439302"
       y2="119.15723"
       gradientUnits="userSpaceOnUse" />
    <linearGradient
       inkscape:collect="always"
       xlink:href="#swatch27"
       id="linearGradient28"
       x1="-91.383003"
       y1="133.1725"
       x2="186.293"
       y2="133.1725"
       gradientUnits="userSpaceOnUse" />
    <linearGradient
       inkscape:collect="always"
       xlink:href="#swatch27"
       id="linearGradient29"
       x1="-104.29"
       y1="45.876499"
       x2="196.23"
       y2="45.876499"
       gradientUnits="userSpaceOnUse" />
    <linearGradient
       inkscape:collect="always"
       xlink:href="#swatch27"
       id="linearGradient30"
       x1="-93.239998"
       y1="133.1725"
       x2="184.436"
       y2="133.1725"
       gradientUnits="userSpaceOnUse" />
    <linearGradient
       inkscape:collect="always"
       xlink:href="#swatch27"
       id="linearGradient31"
       x1="-214.897"
       y1="62.7775"
       x2="0"
       y2="62.7775"
       gradientUnits="userSpaceOnUse" />
    <linearGradient
       inkscape:collect="always"
       xlink:href="#swatch27"
       id="linearGradient32"
       x1="0"
       y1="133.1725"
       x2="197.808"
       y2="133.1725"
       gradientUnits="userSpaceOnUse" />
    <clipPath
       clipPathUnits="userSpaceOnUse"
       id="clipPath17-7">
      <path
         d="M 0,2500 H 2500 V 0 H 0 Z"
         transform="translate(-1814.0187,-1263.2461)"
         id="path17-6" />
    </clipPath>
    <linearGradient
       inkscape:collect="always"
       xlink:href="#swatch39"
       id="linearGradient39"
       x1="-1185.133"
       y1="221.75945"
       x2="67.383196"
       y2="221.75945"
       gradientUnits="userSpaceOnUse" />
  </defs>
  <sodipodi:namedview
     id="namedview1"
     pagecolor="#ffffff"
     bordercolor="#000000"
     borderopacity="0.25"
     inkscape:showpageshadow="2"
     inkscape:pageopacity="0.0"
     inkscape:pagecheckerboard="0"
     inkscape:deskcolor="#d1d1d1"
     inkscape:zoom="0.25202245"
     inkscape:cx="1906.5762"
     inkscape:cy="1779.6034"
     inkscape:window-width="1920"
     inkscape:window-height="1017"
     inkscape:window-x="1912"
     inkscape:window-y="-8"
     inkscape:window-maximized="1"
     inkscape:current-layer="layer-MC0">
    <inkscape:page
       x="0"
       y="0"
       inkscape:label="1"
       id="page1"
       width="3333.3333"
       height="3333.3333"
       margin="517.91467 200 517.91998"
       bleed="0" />
  </sodipodi:namedview>
  <g
     id="layer-MC0"
     inkscape:groupmode="layer"
     inkscape:label="Logo">
    <g
       inkscape:groupmode="layer"
       id="layer3"
       inkscape:label="Text">
      <g
         inkscape:groupmode="layer"
         id="layer5"
         inkscape:label="Fox">
        <path
           id="path14"
           d="M 0,0 H -93.24 L -9.659,138.931 -85.624,266.345 H 7.429 l 38.076,-72.437 38.077,72.437 H 176.82 L 100.669,138.931 184.436,0 H 91.196 L 45.505,83.767 Z"
           style="display:inline;fill:url(#swatch33);fill-opacity:1;fill-rule:nonzero;stroke:none"
           transform="matrix(1.3333333,0,0,-1.3333333,2887.4193,2805.2656)"
           clip-path="url(#clipPath15)"
           inkscape:label="X"
           inkscape:export-filename="Logo Text Under 4x.png"
           inkscape:export-xdpi="130.90906"
           inkscape:export-ydpi="130.90906" />
        <path
           id="path12"
           d="m 0,0 c 12.568,-12.507 27.86,-18.76 45.878,-18.76 18.016,0 33.308,6.253 45.877,18.76 12.567,12.506 18.85,27.767 18.85,45.784 0,18.016 -6.283,33.309 -18.85,45.877 C 79.186,104.229 63.894,110.513 45.878,110.513 27.86,110.513 12.568,104.229 0,91.661 -12.567,79.093 -18.853,63.8 -18.853,45.784 -18.853,27.767 -12.567,12.506 0,0 M 152.861,-53.398 C 123.947,-81.073 88.318,-94.911 45.97,-94.911 c -42.348,0 -77.978,13.838 -106.891,41.513 -28.913,27.673 -43.369,60.765 -43.369,99.275 0,38.509 14.456,71.602 43.369,99.276 28.913,27.673 64.543,41.511 106.891,41.511 42.348,0 77.977,-13.838 106.891,-41.511 28.912,-27.674 43.369,-60.767 43.369,-99.276 0,-38.51 -14.457,-71.602 -43.369,-99.275"
           style="fill:url(#swatch33);fill-opacity:1;fill-rule:nonzero;stroke:none"
           transform="matrix(1.3333333,0,0,-1.3333333,2501.5716,2688.8711)"
           clip-path="url(#clipPath13)"
           inkscape:label="O" />
        <path
           id="path10"
           d="m 0,0 v -74.293 h -127.414 v -34.177 h 97.14 v -74.108 h -97.14 v -83.767 h -85.44 V 0 Z"
           style="fill:url(#swatch33);fill-opacity:1;fill-rule:nonzero;stroke:none"
           transform="matrix(1.3333333,0,0,-1.3333333,2334.6484,2450.1393)"
           clip-path="url(#clipPath11)"
           inkscape:label="F" />
      </g>
      <g
         inkscape:groupmode="layer"
         id="layer4"
         inkscape:label="Voxel">
        <path
           id="path8"
           d="M 0,0 V 266.345 H 85.438 V 78.009 h 112.37 V 0 Z"
           style="fill:url(#linearGradient32);fill-opacity:1;fill-rule:nonzero;stroke:none"
           transform="matrix(1.3333333,0,0,-1.3333333,1733.9713,2805.2656)"
           clip-path="url(#clipPath9)"
           inkscape:label="L" />
        <path
           id="path6"
           d="M 0,0 V -70.395 H -214.897 V 195.95 H -3.9 V 125.558 H -129.458 V 96.953 h 95.097 V 32.317 h -95.097 V 0 Z"
           style="fill:url(#linearGradient31);fill-opacity:1;fill-rule:nonzero;stroke:none"
           transform="matrix(1.3333333,0,0,-1.3333333,1670.6888,2711.4063)"
           clip-path="url(#clipPath7)"
           inkscape:label="E" />
        <path
           id="path4"
           d="M 0,0 H -93.24 L -9.659,138.931 -85.624,266.345 H 7.429 l 38.076,-72.437 38.077,72.437 H 176.82 L 100.669,138.931 184.436,0 H 91.196 L 45.505,83.767 Z"
           style="fill:url(#linearGradient30);fill-opacity:1;fill-rule:nonzero;stroke:none"
           transform="matrix(1.3333333,0,0,-1.3333333,1097.7448,2805.2656)"
           clip-path="url(#clipPath5)"
           inkscape:label="X" />
        <path
           id="path2"
           d="m 0,0 c 12.568,-12.507 27.86,-18.76 45.877,-18.76 18.017,0 33.308,6.253 45.878,18.76 12.567,12.506 18.85,27.767 18.85,45.784 0,18.016 -6.283,33.309 -18.85,45.877 -12.57,12.568 -27.861,18.852 -45.878,18.852 C 27.86,110.513 12.568,104.229 0,91.661 -12.567,79.093 -18.853,63.8 -18.853,45.784 -18.853,27.767 -12.567,12.506 0,0 M 152.861,-53.398 C 123.947,-81.073 88.318,-94.911 45.97,-94.911 c -42.348,0 -77.978,13.838 -106.892,41.513 -28.912,27.673 -43.368,60.765 -43.368,99.275 0,38.509 14.456,71.602 43.368,99.276 28.914,27.673 64.544,41.511 106.892,41.511 42.348,0 77.977,-13.838 106.891,-41.511 28.912,-27.674 43.369,-60.767 43.369,-99.276 0,-38.51 -14.457,-71.602 -43.369,-99.275"
           style="fill:url(#linearGradient29);fill-opacity:1;fill-rule:nonzero;stroke:none"
           transform="matrix(1.3333333,0,0,-1.3333333,711.8972,2688.8711)"
           clip-path="url(#clipPath3)"
           inkscape:label="O" />
        <path
           id="path1"
           d="M 0,0 -91.383,266.345 H 0 L 47.548,95.097 95.097,266.345 h 91.196 L 95.097,0 Z"
           style="fill:url(#linearGradient28);fill-opacity:1;fill-rule:nonzero;stroke:none"
           transform="matrix(1.3333333,0,0,-1.3333333,321.84373,2805.2656)"
           inkscape:label="V" />
      </g>
    </g>
    <g
       inkscape:groupmode="layer"
       id="layer2"
       inkscape:label="Body">
      <path
         id="void"
         d="m 0,0 c 25.392,28.818 42.715,61.893 51.487,98.309 20.667,85.779 21.184,171.285 1.538,254.146 -18.719,78.942 -56.183,153.366 -108.338,215.222 -53.327,63.236 -122.441,113.819 -199.879,146.272 -80.917,33.915 -169.342,48.421 -262.775,43.06 l -5.899,-0.335 -4.666,3.626 c -64.529,50.182 -144.578,75.085 -231.509,72.015 -127.39,-4.505 -228.752,-47.116 -301.272,-126.642 -31.13,-34.14 -56.999,-75.264 -76.878,-122.236 -15.893,-37.546 -28.015,-78.896 -36.031,-122.899 -13.618,-74.756 -10.69,-130.564 -10.559,-132.902 l 0.029,-0.511 0.392,-0.354 c 48.036,-43.234 66.999,-106.52 56.362,-188.098 -8.016,-61.515 -30.891,-111.051 -31.121,-111.543 l -0.423,-0.904 1.007,-0.834 c 50.66,-42.038 135.449,-112.393 128.049,-242.415 -1.837,-32.254 4.586,-58.572 19.086,-78.22 12.171,-16.496 30.035,-27.483 50.305,-30.937 16.585,-2.821 34.007,-0.391 48.227,6.705 14.933,7.45 25.443,19.498 29.598,33.921 l 0.115,0.394 -0.136,0.381 c -18.793,53.569 -105.702,282.312 -122.937,327.623 l -3.641,9.579 7.281,7.209 c 13.875,13.743 45.178,38.763 98.899,51.896 l 19.977,4.882 -0.492,-20.559 c -0.289,-11.935 0.262,-24.186 1.633,-36.421 l 0.117,-1.037 1.03,-0.096 c 15.792,-1.473 36.747,-3.736 58.848,-8.2 l 13.798,-2.789 -1.23,-14.024 c -3.587,-40.955 -12.805,-67.699 -12.9,-67.964 l -0.305,-0.874 0.932,-0.771 c 50.66,-42.038 135.449,-112.393 128.049,-242.416 -1.836,-32.253 4.586,-58.571 19.086,-78.219 12.17,-16.496 30.036,-27.483 50.305,-30.937 16.601,-2.828 34.001,-0.397 48.227,6.705 14.933,7.45 25.446,19.498 29.602,33.923 l 0.114,0.391 -0.135,0.385 c -12.646,36.034 -45.674,127.857 -71.157,198.544 l -14.506,40.245 37.137,-21.233 c 9.729,-5.561 20.12,-9.295 30.888,-11.094 5.024,-0.84 10.2,-1.265 15.392,-1.265 44.671,0.003 80.207,30.485 81.695,31.783 l 0.72,0.627 -0.412,0.874 c -36.295,76.811 -52.77,200.617 -45.201,339.674 0.73,13.516 1.72,27.363 2.941,41.152 l 0.44,4.968 92.992,110.347 c 9.869,47.657 13.366,99.846 9.594,143.17 l -1.937,22.271 21.623,-5.674 c 47.734,-12.522 85.448,-38.479 112.091,-77.143 46.27,-67.149 57.718,-171.326 32.235,-293.34 -18.209,-87.182 1.059,-157.764 20.43,-201.623 20.947,-47.424 45.892,-74.026 46.944,-75.134 l 0.477,-0.499 0.695,0.142 c 1.913,0.394 47.236,9.895 98.264,39.14 C -45.759,-43.406 -20.294,-23.031 0,0"
         style="display:inline;fill:url(#linearGradient39);fill-rule:nonzero;stroke:none"
         transform="matrix(1.3333333,0,0,-1.3333333,2409.7288,1656.5137)"
         clip-path="url(#clipPath17-7)"
         inkscape:label="Void" />
      <path
         id="tail"
         d="m 0,0 c -151.581,206.51 -419.861,224.344 -443.164,225.514 -0.373,-0.01 -0.745,-0.042 -1.117,-0.064 60.961,-49.246 100.354,-119.402 113.698,-201.082 l 0.266,-0.117 c 116.422,-50.938 148.292,-176.938 130.266,-286.019 -10.502,-63.537 -14.141,-128.297 33.796,-199.506 19.389,-28.806 47.225,-58.664 86.447,-89.927 C 103.217,-479.907 157.05,-213.968 0,0"
         style="display:inline;fill:url(#swatch33);fill-opacity:1;fill-rule:nonzero;stroke:none"
         transform="matrix(1.3333333,0,0,-1.3333333,2311.974,942.474)"
         clip-path="url(#clipPath19)"
         inkscape:label="Tail" />
      <path
         id="pawleft"
         d="m 0,0 c -9.577,45.757 27.667,64.91 27.667,64.91 -42.629,74.04 -101.558,104.974 -160.519,119.412 -6.077,1.49 -12.152,2.799 -18.217,3.97 C -162.998,127.671 -200.05,87.256 -200.05,87.256 -107.474,25.539 -56.174,-68.56 -59.589,-135.14 c -2.107,-40.988 22.005,-60.186 50.544,-67.698 29.242,-7.692 63.133,-3.14 78.211,2.788 0,0 -59.589,154.294 -69.166,200.05"
         style="display:inline;fill:url(#swatch33);fill-opacity:1;fill-rule:nonzero;stroke:none"
         transform="matrix(1.3333333,0,0,-1.3333333,1518.8672,1830.6393)"
         clip-path="url(#clipPath21)"
         inkscape:label="Left Paw" />
      <path
         id="head"
         d="m 0,0 c -0.224,91.098 5.97,157.029 5.97,157.029 -119.179,-32.987 -147.377,-177.172 -147.377,-177.172 -45.756,-4.256 -101.089,-37.243 -101.089,-37.243 0,0 -134.129,110.867 -213.608,161.37 -114.666,-158.71 55.057,-296.277 55.057,-296.277 l 1.065,-4.49 c 0,0 170.787,11.174 214.415,-50.544 37.786,-53.461 79.573,-157.221 182.748,-136.311 15.939,3.235 33.339,9.438 52.417,19.26 C 9.651,-253.232 0.256,-108.687 0,0"
         style="fill:url(#swatch33);fill-opacity:1;fill-rule:nonzero;stroke:none"
         transform="matrix(1.3333333,0,0,-1.3333333,1777.6407,1231.2981)"
         clip-path="url(#clipPath23)"
         inkscape:label="Head" />
      <path
         id="body"
         d="m 0,0 -0.011,0.074 c -0.128,0.064 -0.256,0.117 -0.384,0.171 -112.803,222.342 -356.567,284.197 -542.656,169.127 -220.267,-136.204 -229.845,-395.844 -229.845,-395.844 71.294,-139.396 -27.666,-310.715 -27.666,-310.715 48.725,-38.936 140.46,-97.898 142.588,-212.82 1.001,-54.248 23.869,-76.211 49.396,-83.702 33.179,-9.747 70.848,4.959 70.848,4.959 l -85.128,285.178 c 0,0 2.129,15.961 22.346,41.5 0,0 37.137,50.278 129.202,65.1 0.021,1.245 -51.779,307.886 -50.459,311.589 l 202.178,-97.896 c 3.618,2.138 7.258,4.095 10.907,5.894 -49.704,58.207 -73.646,153.74 -15.163,221.822 0,0 -22.346,-119.179 84.064,-201.114 29.794,90.448 100.024,129.82 175.575,112.794 0,0 -6.193,-65.931 -5.97,-157.029 l 63.432,75.094 C 4.532,-111.358 7.896,-48.342 0,0"
         style="display:inline;fill:url(#swatch33);fill-opacity:1;fill-rule:nonzero;stroke:none"
         transform="matrix(1.3333333,0,0,-1.3333333,1871.2109,910.082)"
         clip-path="url(#clipPath25)"
         inkscape:label="Body" />
    </g>
    <path
       id="outline"
       d="m 0,0 c -14.649,-60.812 -54.224,-110.194 -117.62,-146.779 -35.136,-20.275 -68.361,-30.864 -84.141,-35.187 -8.498,10.696 -24.231,32.691 -37.816,63.822 -26.128,59.876 -32.42,123.539 -18.702,189.219 26.518,126.964 14.06,236.157 -35.077,307.469 -31.877,46.259 -77.691,75.72 -136.299,87.692 -12.988,66.605 -42.491,124.83 -86.381,170.917 C -351.59,637.354 -202.747,571.578 -103,453.281 1.886,328.888 39.427,163.675 0,0 M -466.876,293.433 -520.5,229.946 c 6.811,47.691 16.47,93.135 28.305,132.914 l 5.193,17.459 -17.769,4.004 c -84.321,19.007 -158.677,-25.604 -191.96,-114.065 -7.456,-1.39 -18.488,-3.917 -33.009,-8.483 -5.855,-1.84 -11.543,-3.893 -17.054,-6.132 -45.499,47.635 -65.208,123.217 -8.445,189.297 l -25.829,22.189 c -32.638,-37.996 -47.274,-82.206 -42.328,-127.851 2.891,-26.67 12.543,-52.934 27.913,-76.748 l -180.237,87.271 -6.385,-17.851 c -13.12,-36.667 -14.774,-82.049 -4.425,-121.397 13.577,-51.634 46.535,-92.975 95.307,-119.555 l 16.293,29.898 c -80.391,43.812 -92.335,126.081 -80.342,181.171 l 192.164,-93.047 7.856,4.631 c 10.633,6.267 22.654,11.531 35.727,15.642 23.951,7.529 36.618,8.643 36.65,8.644 l 11.384,0.816 3.572,10.842 c 23.615,71.689 75.488,110.358 137.814,104.385 -12.37,-45.75 -22.043,-97.458 -28.171,-150.811 -0.925,-8.016 -1.817,-16.545 -2.647,-25.368 -1.491,-15.999 -2.678,-32.064 -3.527,-47.742 -7.322,-134.559 7.653,-255.67 41.196,-335.615 -14.361,-9.419 -42.442,-24.066 -72.305,-18.981 -26.882,4.574 -50.63,24.466 -70.584,59.122 -21.008,36.489 -47.678,65.966 -79.267,87.607 -26.486,18.146 -56.566,31.179 -91.954,39.847 -21.991,5.388 -43.592,8.454 -61.881,10.457 -0.808,13.749 -0.478,27.252 0.995,40.297 l 2.508,22.248 -22.11,-3.526 c -98.142,-15.656 -138.972,-69.587 -140.662,-71.875 l -5.526,-7.482 3.31,-8.691 c 1.022,-2.685 99.537,-261.463 124.443,-331.169 -8.031,-17.192 -31.221,-27.152 -55.433,-23.03 -36.784,6.265 -57.044,39.937 -54.191,90.073 3.442,60.468 -11.909,116.223 -45.624,165.717 -24.819,36.434 -55.096,63.432 -79.515,83.918 7.546,18.868 21.265,57.707 27.388,103.836 5.063,38.133 3.85,73.377 -3.606,104.754 -8.932,37.596 -26.797,69.577 -53.146,95.166 -0.332,16.936 -0.053,64.484 10.679,122.895 12.23,66.57 40.966,161.429 108.4,235.283 69.071,75.648 166.051,116.195 288.245,120.519 84.841,2.992 162.436,-21.867 224.376,-71.919 57.64,-46.557 94.848,-112.484 107.604,-190.656 7.006,-42.904 4.782,-102.069 -5.766,-155.421 m -188.59,-765.882 c -36.785,6.264 -57.043,39.937 -54.189,90.073 3.441,60.467 -11.91,116.222 -45.625,165.716 -25.192,36.981 -56.004,64.239 -80.61,84.834 3.053,11.364 7.385,30.567 9.902,55.322 57.359,-18.252 98.893,-51.906 129.617,-104.683 6.714,-18.584 73.899,-204.582 96.347,-268.215 -8.023,-17.204 -31.224,-27.169 -55.442,-23.047 M 34.652,253.492 c -19.284,81.33 -57.881,158.006 -111.621,221.739 -54.923,65.137 -126.099,117.232 -205.834,150.65 -83.187,34.865 -173.916,49.734 -269.759,44.258 -67.507,52.5 -150.915,78.528 -241.732,75.32 -131.777,-4.663 -236.869,-48.996 -312.352,-131.771 -32.341,-35.463 -59.17,-78.094 -79.746,-126.707 -16.342,-38.616 -28.797,-81.081 -37.019,-126.214 -13.978,-76.733 -10.926,-134.199 -10.79,-136.607 l 0.397,-6.999 5.212,-4.69 c 43.95,-39.556 61.206,-98.216 51.283,-174.356 -7.682,-58.949 -29.564,-106.459 -29.78,-106.92 l -5.567,-11.913 10.366,-8.602 c 48.373,-40.139 129.333,-107.316 122.384,-229.404 -2.05,-36.016 5.397,-65.78 22.135,-88.465 14.602,-19.79 36.029,-32.971 60.334,-37.109 5.474,-0.933 10.988,-1.393 16.468,-1.393 14.544,10e-4 28.843,3.244 41.44,9.53 18.919,9.44 32.307,24.944 37.697,43.654 l 1.506,5.222 -1.8,5.13 c -18.839,53.693 -104.181,278.317 -123.077,328.004 11.618,11.505 40.66,35.343 91.557,47.786 -0.306,-12.657 0.27,-25.556 1.727,-38.558 l 1.543,-13.768 13.795,-1.288 c 16.019,-1.494 36.207,-3.718 57.19,-7.957 -3.398,-38.801 -11.99,-63.89 -12.079,-64.143 l -3.934,-11.184 9.369,-7.775 c 48.371,-40.138 129.331,-107.316 122.384,-229.403 -2.05,-36.016 5.397,-65.78 22.135,-88.465 14.601,-19.791 36.028,-32.971 60.333,-37.111 5.474,-0.931 10.989,-1.392 16.469,-1.392 14.543,0 28.842,3.244 41.438,9.53 18.921,9.442 32.309,24.944 37.7,43.653 l 1.504,5.223 -1.8,5.129 c -12.866,36.667 -46.661,130.606 -71.198,198.669 11.368,-6.499 23.414,-10.832 36.107,-12.953 6.115,-1.023 12.122,-1.482 17.987,-1.482 50.5,0.003 90.185,34.041 92.037,35.654 l 9.706,8.463 -5.502,11.642 c -35.211,74.522 -51.146,195.563 -43.714,332.095 0.722,13.352 1.699,26.994 2.903,40.62 l 92.287,109.261 0.877,4.231 c 10.298,49.724 13.751,103.115 9.866,147.742 43.998,-11.544 78.626,-35.299 103.12,-70.844 43.802,-63.569 54.38,-163.428 29.786,-281.186 -19.065,-91.276 1.136,-165.237 21.442,-211.208 22.091,-50.017 48.794,-78.42 49.922,-79.604 l 6.511,-6.852 9.258,1.905 c 2.01,0.413 49.834,10.476 102.924,40.902 31.427,18.011 58.233,39.482 79.673,63.812 27.106,30.761 45.605,66.101 54.984,105.032 21.249,88.21 21.77,176.181 1.548,261.467"
       style="display:inline;fill:url(#linearGradient27);fill-opacity:1;fill-rule:nonzero;stroke:none"
       transform="matrix(1.3333333,0,0,-1.3333333,2463.6197,1512.2123)"
       clip-path="url(#clipPath27)"
       inkscape:label="Outline" />
  </g>
</svg>
