<?xml version="1.0" encoding="UTF-8" standalone="no"?>
<!-- Created with Inkscape (http://www.inkscape.org/) -->

<svg
   version="1.1"
   id="svg1"
   width="3333.3333"
   height="3333.3333"
   viewBox="0 0 3333.3333 3333.3333"
   sodipodi:docname="Logo White.svg"
   inkscape:version="1.3.2 (091e20e, 2023-11-25, custom)"
   inkscape:export-filename="Logo 4x"
   inkscape:export-xdpi="130.91"
   inkscape:export-ydpi="130.91"
   xmlns:inkscape="http://www.inkscape.org/namespaces/inkscape"
   xmlns:sodipodi="http://sodipodi.sourceforge.net/DTD/sodipodi-0.dtd"
   xmlns:xlink="http://www.w3.org/1999/xlink"
   xmlns="http://www.w3.org/2000/svg"
   xmlns:svg="http://www.w3.org/2000/svg">
  <defs
     id="defs1">
    <linearGradient
       id="swatch15"
       inkscape:swatch="solid"
       inkscape:label="void-fill">
      <stop
         style="stop-color:#000000;stop-opacity:1;"
         offset="0"
         id="stop15" />
    </linearGradient>
    <linearGradient
       id="swatch13"
       inkscape:swatch="solid"
       inkscape:label="outline">
      <stop
         style="stop-color:#ffffff;stop-opacity:1;"
         offset="0"
         id="stop13" />
    </linearGradient>
    <linearGradient
       id="swatch12"
       inkscape:swatch="solid"
       inkscape:label="fox-fill">
      <stop
         style="stop-color:#f17824;stop-opacity:1;"
         offset="0"
         id="stop12" />
    </linearGradient>
    <clipPath
       clipPathUnits="userSpaceOnUse"
       id="clipPath2">
      <path
         d="M 0,2500 H 2500 V 0 H 0 Z"
         transform="translate(-2208.6915,-873.07812)"
         id="path2" />
    </clipPath>
    <clipPath
       clipPathUnits="userSpaceOnUse"
       id="clipPath4">
      <path
         d="M 0,2500 H 2500 V 0 H 0 Z"
         transform="translate(-2072.6455,-1773.7725)"
         id="path4" />
    </clipPath>
    <clipPath
       clipPathUnits="userSpaceOnUse"
       id="clipPath6">
      <path
         d="M 0,2500 H 2500 V 0 H 0 Z"
         transform="translate(-1061.583,-641.52829)"
         id="path6" />
    </clipPath>
    <clipPath
       clipPathUnits="userSpaceOnUse"
       id="clipPath8">
      <path
         d="M 0,2500 H 2500 V 0 H 0 Z"
         transform="translate(-1391.4708,-1405.5763)"
         id="path8" />
    </clipPath>
    <clipPath
       clipPathUnits="userSpaceOnUse"
       id="clipPath10">
      <path
         d="M 0,2500 H 2500 V 0 H 0 Z"
         transform="translate(-1510.755,-1815.0654)"
         id="path10" />
    </clipPath>
    <clipPath
       clipPathUnits="userSpaceOnUse"
       id="clipPath12">
      <path
         d="M 0,2500 H 2500 V 0 H 0 Z"
         transform="translate(-2265.9669,-1047.4619)"
         id="path12" />
    </clipPath>
    <linearGradient
       inkscape:collect="always"
       xlink:href="#swatch13"
       id="linearGradient13"
       gradientUnits="userSpaceOnUse" />
    <clipPath
       clipPathUnits="userSpaceOnUse"
       id="clipPath2-2">
      <path
         d="M 0,2500 H 2500 V 0 H 0 Z"
         transform="translate(-2208.6915,-873.07812)"
         id="path2-3" />
    </clipPath>
    <linearGradient
       inkscape:collect="always"
       xlink:href="#swatch15"
       id="linearGradient15"
       x1="-2014.431"
       y1="376.93525"
       x2="114.53405"
       y2="376.93525"
       gradientUnits="userSpaceOnUse" />
  </defs>
  <sodipodi:namedview
     id="namedview1"
     pagecolor="#ffffff"
     bordercolor="#000000"
     borderopacity="0.25"
     inkscape:showpageshadow="2"
     inkscape:pageopacity="0.0"
     inkscape:pagecheckerboard="0"
     inkscape:deskcolor="#d1d1d1"
     inkscape:zoom="0.24630002"
     inkscape:cx="1354.0397"
     inkscape:cy="1536.7437"
     inkscape:window-width="1920"
     inkscape:window-height="1017"
     inkscape:window-x="1912"
     inkscape:window-y="-8"
     inkscape:window-maximized="1"
     inkscape:current-layer="layer1">
    <inkscape:page
       x="0"
       y="0"
       inkscape:label="1"
       id="page1"
       width="3333.3333"
       height="3333.3333"
       margin="246.65866 200 246.65334"
       bleed="0" />
  </sodipodi:namedview>
  <g
     id="layer-MC0"
     inkscape:groupmode="layer"
     inkscape:label="Logo"
     style="display:inline">
    <g
       inkscape:groupmode="layer"
       id="layer1"
       inkscape:label="Body">
      <path
         id="void"
         d="m 0,0 c 43.159,48.983 72.604,105.202 87.515,167.099 35.129,145.804 36.006,291.143 2.614,431.986 -31.818,134.182 -95.498,260.684 -184.148,365.823 -90.641,107.487 -208.119,193.464 -339.745,248.627 -137.538,57.647 -287.839,82.303 -446.651,73.19 l -10.027,-0.57 -7.932,6.164 c -109.683,85.298 -245.746,127.626 -393.506,122.409 -216.531,-7.66 -388.822,-80.086 -512.088,-215.262 -52.914,-58.028 -96.884,-127.929 -130.674,-207.769 -27.014,-63.821 -47.618,-134.103 -61.243,-208.898 -23.148,-127.067 -18.17,-221.927 -17.948,-225.901 l 0.05,-0.868 0.666,-0.601 c 81.649,-73.488 113.881,-181.058 95.802,-319.721 -13.625,-104.559 -52.507,-188.759 -52.899,-189.596 l -0.719,-1.537 1.712,-1.416 c 86.109,-71.454 230.23,-191.039 217.651,-412.046 -3.121,-54.823 7.795,-99.555 32.441,-132.953 20.688,-28.039 51.053,-46.715 85.507,-52.586 28.19,-4.794 57.803,-0.664 81.974,11.398 25.382,12.663 43.247,33.141 50.31,57.657 l 0.193,0.669 -0.229,0.648 c -31.944,91.055 -179.668,479.861 -208.962,556.877 l -6.189,16.281 12.375,12.255 c 23.584,23.36 76.792,65.886 168.102,88.21 l 33.957,8.297 -0.836,-34.945 c -0.492,-20.285 0.445,-41.109 2.776,-61.907 l 0.199,-1.762 1.751,-0.162 c 26.842,-2.504 62.462,-6.352 100.026,-13.939 l 23.454,-4.741 -2.092,-23.836 c -6.095,-69.613 -21.764,-115.073 -21.926,-115.522 l -0.518,-1.485 1.584,-1.312 c 86.109,-71.454 230.23,-191.039 217.651,-412.046 -3.122,-54.823 7.794,-99.556 32.441,-132.953 20.687,-28.039 51.053,-46.714 85.507,-52.586 28.217,-4.805 57.793,-0.674 81.973,11.397 25.383,12.663 43.253,33.142 50.316,57.662 l 0.194,0.665 -0.23,0.653 c -21.493,61.249 -77.634,217.326 -120.95,337.476 l -24.656,68.406 63.125,-36.09 c 16.537,-9.453 34.198,-15.8 52.502,-18.859 8.537,-1.427 17.337,-2.148 26.162,-2.148 75.929,0.005 136.331,51.816 138.862,54.022 l 1.222,1.067 -0.7,1.485 c -61.692,130.559 -89.695,340.999 -76.828,577.362 1.238,22.972 2.922,46.51 4.998,69.948 l 0.747,8.443 158.065,187.563 c 16.772,81.006 22.716,169.713 16.307,243.352 l -3.294,37.858 36.754,-9.647 c 81.137,-21.284 145.24,-65.405 190.526,-131.123 78.649,-114.138 98.108,-291.212 54.792,-498.604 -30.951,-148.189 1.798,-268.161 34.726,-342.709 35.605,-80.609 78.005,-125.828 79.793,-127.71 l 0.811,-0.847 1.181,0.24 c 3.252,0.67 80.289,16.82 167.026,66.53 C -77.78,-73.78 -34.496,-39.149 0,0"
         style="display:inline;fill:url(#linearGradient15);fill-opacity:1;fill-rule:nonzero;stroke:none"
         transform="matrix(1.3333333,0,0,-1.3333333,2978.592,2173.761)"
         clip-path="url(#clipPath2-2)"
         inkscape:label="Void"
         inkscape:export-filename="Logo 4x.png"
         inkscape:export-xdpi="130.90907"
         inkscape:export-ydpi="130.90907" />
      <path
         id="tail"
         d="m 0,0 c -257.649,351.015 -713.658,381.328 -753.268,383.317 -0.634,-0.017 -1.266,-0.072 -1.899,-0.108 103.619,-83.707 170.578,-202.953 193.259,-341.789 l 0.452,-0.199 c 197.89,-86.583 252.06,-300.751 221.421,-486.16 -17.853,-107.998 -24.038,-218.076 57.443,-339.113 32.956,-48.963 80.271,-99.714 146.94,-152.853 C 175.443,-815.722 266.945,-363.692 0,0"
         style="display:inline;fill:url(#swatch12);fill-opacity:1;fill-rule:nonzero;stroke:none"
         transform="matrix(1.3333333,0,0,-1.3333333,2763.5273,968.30333)"
         clip-path="url(#clipPath4)"
         inkscape:label="Tail" />
      <path
         id="pawleft"
         d="m 0,0 c -16.277,77.774 47.026,110.33 47.026,110.33 -72.457,125.85 -172.621,178.429 -272.84,202.972 -10.331,2.533 -20.656,4.757 -30.966,6.748 -20.276,-103.041 -83.254,-171.737 -83.254,-171.737 157.356,-104.904 244.554,-264.847 238.748,-378.017 -3.583,-69.671 37.403,-102.302 85.913,-115.07 49.703,-13.076 107.31,-5.336 132.938,4.739 0,0 -101.287,262.261 -117.565,340.035"
         style="display:inline;fill:url(#swatch12);fill-opacity:1;fill-rule:nonzero;stroke:none"
         transform="matrix(1.3333333,0,0,-1.3333333,1415.444,2477.9623)"
         clip-path="url(#clipPath6)"
         inkscape:label="Left Paw" />
      <path
         id="ehad"
         d="M 0,0 C -0.379,154.843 10.147,266.909 10.147,266.909 -192.426,210.84 -240.356,-34.238 -240.356,-34.238 c -77.775,-7.236 -171.827,-63.305 -171.827,-63.305 0,0 -227.986,188.447 -363.079,274.29 -194.904,-269.768 93.583,-503.597 93.583,-503.597 l 1.809,-7.632 c 0,0 290.296,18.991 364.452,-85.914 64.227,-90.869 135.255,-267.235 310.626,-231.693 27.094,5.497 56.667,16.042 89.097,32.736 C 16.406,-430.434 0.435,-184.74 0,0"
         style="display:inline;fill:url(#swatch12);fill-opacity:1;fill-rule:nonzero;stroke:none"
         transform="matrix(1.3333333,0,0,-1.3333333,1855.2943,1459.2317)"
         clip-path="url(#clipPath8)"
         inkscape:label="Head" />
      <path
         id="body"
         d="m 0,0 -0.018,0.127 c -0.216,0.108 -0.434,0.198 -0.651,0.29 -191.74,377.926 -606.076,483.065 -922.381,287.474 -374.401,-231.514 -390.679,-672.836 -390.679,-672.836 121.183,-236.94 -47.026,-528.14 -47.026,-528.14 82.82,-66.18 238.748,-166.399 242.365,-361.739 1.702,-92.208 40.569,-129.539 83.96,-142.273 56.395,-16.567 120.423,8.429 120.423,8.429 l -144.695,484.731 c 0,0 3.617,27.13 37.982,70.54 0,0 63.124,85.46 219.613,110.655 0.035,2.116 -88.012,523.328 -85.769,529.623 l 343.652,-166.4 c 6.151,3.635 12.336,6.962 18.539,10.02 -84.484,98.937 -125.179,261.32 -25.773,377.041 0,0 -37.983,-202.574 142.887,-341.844 50.643,153.74 170.017,220.661 298.434,191.722 0,0 -10.526,-112.066 -10.147,-266.909 L -11.467,-281.85 C 7.705,-189.28 13.421,-82.168 0,0"
         style="display:inline;fill:url(#swatch12);fill-opacity:1;fill-rule:nonzero;stroke:none"
         transform="matrix(1.3333333,0,0,-1.3333333,2014.3399,913.24613)"
         clip-path="url(#clipPath10)"
         inkscape:label="Body" />
    </g>
    <path
       id="outline"
       d="m 0,0 c -24.9,-103.363 -92.167,-187.302 -199.927,-249.487 -59.72,-34.461 -116.196,-52.459 -143.017,-59.808 -14.444,18.181 -41.188,55.565 -64.279,108.482 -44.41,101.774 -55.104,209.984 -31.789,321.624 45.075,215.806 23.901,401.409 -59.622,522.621 -54.182,78.628 -132.053,128.704 -231.673,149.054 -22.076,113.21 -72.225,212.179 -146.826,290.516 279.517,0.34 532.512,-111.462 702.058,-312.536 C 3.204,559.028 67.016,278.207 0,0 m -793.572,498.763 -91.149,-107.911 c 11.576,81.062 27.995,158.306 48.111,225.92 l 8.828,29.676 -30.204,6.807 c -143.324,32.306 -269.71,-43.522 -326.285,-193.883 -12.673,-2.362 -31.423,-6.658 -56.105,-14.418 -9.952,-3.13 -19.621,-6.618 -28.988,-10.424 -77.337,80.968 -110.837,209.44 -14.355,321.758 l -43.904,37.715 c -55.476,-64.583 -80.353,-139.73 -71.945,-217.315 4.914,-45.331 21.32,-89.974 47.444,-130.452 l -306.356,148.338 -10.854,-30.341 c -22.3,-62.324 -25.112,-139.462 -7.522,-206.344 23.078,-87.766 79.099,-158.035 162,-203.213 l 27.694,50.817 c -136.647,74.47 -156.947,214.307 -136.565,307.946 l 326.632,-158.157 13.355,7.872 c 18.073,10.653 38.506,19.6 60.725,26.587 40.711,12.798 62.243,14.69 62.297,14.695 l 19.351,1.385 6.071,18.428 c 40.14,121.855 128.312,187.581 234.248,177.43 -21.024,-77.764 -37.468,-165.654 -47.883,-256.342 -1.573,-13.624 -3.088,-28.121 -4.498,-43.119 -2.536,-27.195 -4.552,-54.499 -5.997,-81.15 -12.445,-228.716 13.01,-434.576 70.024,-570.462 -24.41,-16.009 -72.141,-40.905 -122.901,-32.262 -45.692,7.775 -86.057,41.586 -119.974,100.492 -35.71,62.024 -81.041,112.126 -134.735,148.911 -45.019,30.843 -96.147,52.997 -156.3,67.73 -37.378,9.158 -74.093,14.37 -105.18,17.774 -1.374,23.37 -0.813,46.322 1.689,68.495 l 4.264,37.816 -37.581,-5.995 c -166.818,-26.609 -236.218,-118.279 -239.09,-122.169 l -9.394,-12.715 5.626,-14.776 c 1.738,-4.561 169.189,-444.42 211.522,-562.904 -13.649,-29.22 -53.066,-46.15 -94.222,-39.145 -62.523,10.65 -96.959,67.885 -92.11,153.103 5.85,102.779 -20.243,197.55 -77.55,281.676 -42.185,61.93 -93.649,107.82 -135.156,142.64 12.826,32.071 36.144,98.088 46.553,176.495 8.606,64.818 6.545,124.724 -6.128,178.057 -15.183,63.904 -45.55,118.263 -90.336,161.758 -0.564,28.786 -0.09,109.606 18.151,208.891 20.789,113.153 69.633,274.388 184.254,399.922 117.404,128.581 282.245,197.503 489.944,204.852 144.209,5.085 276.101,-37.168 381.383,-122.245 97.974,-79.135 161.218,-191.193 182.9,-324.068 11.911,-72.924 8.128,-173.49 -9.799,-264.176 m -320.557,-1301.808 c -62.526,10.649 -96.959,67.884 -92.108,153.102 5.848,102.779 -20.245,197.547 -77.552,281.675 -42.819,62.861 -95.191,109.192 -137.015,144.198 5.189,19.315 12.551,51.956 16.828,94.033 97.497,-31.024 168.096,-88.228 220.318,-177.937 11.412,-31.587 125.611,-347.736 163.765,-455.896 -13.635,-29.244 -53.072,-46.181 -94.236,-39.175 M 58.898,430.874 c -32.777,138.24 -98.383,268.571 -189.726,376.9 -93.356,110.718 -214.337,199.265 -349.866,256.068 -141.399,59.262 -295.616,84.536 -458.524,75.227 -114.746,89.238 -256.517,133.479 -410.885,128.026 -223.989,-7.927 -402.618,-83.282 -530.92,-223.978 -54.971,-60.279 -100.575,-132.741 -135.547,-215.37 -27.78,-65.637 -48.95,-137.817 -62.924,-214.534 -23.759,-130.424 -18.57,-228.102 -18.34,-232.196 l 0.676,-11.897 8.858,-7.973 c 74.704,-67.234 104.035,-166.942 87.169,-296.359 -13.059,-100.199 -50.252,-180.954 -50.619,-181.738 l -9.464,-20.25 17.62,-14.622 c 82.223,-68.224 219.833,-182.409 208.022,-389.928 -3.485,-61.219 9.176,-111.81 37.626,-150.369 24.818,-33.64 61.239,-56.042 102.551,-63.076 9.304,-1.587 18.677,-2.368 27.993,-2.368 24.719,10e-4 49.024,5.514 70.436,16.199 32.157,16.047 54.915,42.398 64.076,74.202 l 2.559,8.875 -3.06,8.72 c -32.021,91.265 -177.079,473.07 -209.199,557.525 19.747,19.555 69.111,60.075 155.625,81.224 -0.52,-21.515 0.458,-43.439 2.936,-65.538 l 2.622,-23.404 23.447,-2.187 c 27.228,-2.541 61.543,-6.321 97.211,-13.527 -5.778,-65.951 -20.382,-108.596 -20.532,-109.026 l -6.689,-19.01 15.925,-13.216 c 82.22,-68.224 219.831,-182.412 208.022,-389.928 -3.485,-61.219 9.175,-111.809 37.626,-150.369 24.818,-33.639 61.237,-56.042 102.551,-63.079 9.304,-1.582 18.677,-2.366 27.992,-2.366 24.72,0 49.025,5.515 70.434,16.199 32.16,16.048 54.918,42.4 64.081,74.201 l 2.557,8.877 -3.059,8.716 c -21.87,62.326 -79.313,221.998 -121.019,337.688 19.322,-11.046 39.797,-18.411 61.373,-22.018 10.393,-1.737 20.604,-2.516 30.573,-2.516 85.838,0.005 153.292,57.861 156.438,60.601 l 16.498,14.385 -9.351,19.79 c -59.85,126.668 -86.935,332.407 -74.303,564.477 1.228,22.696 2.888,45.882 4.935,69.044 l 156.865,185.717 1.491,7.192 c 17.503,84.517 23.372,175.269 16.771,251.124 74.784,-19.62 133.643,-60 175.276,-120.418 74.453,-108.05 92.433,-277.786 50.628,-477.945 -32.404,-155.147 1.933,-280.862 36.447,-359 37.548,-85.017 82.938,-133.294 84.854,-135.309 l 11.067,-11.645 15.737,3.238 c 3.416,0.702 84.707,17.805 174.947,69.522 53.417,30.615 98.98,67.11 135.423,108.466 46.073,52.285 77.516,112.353 93.458,178.528 36.119,149.936 37.004,299.464 2.631,444.428"
       style="display:inline;fill:url(#linearGradient13);fill-opacity:1;fill-rule:nonzero;stroke:none"
       transform="matrix(1.3333333,0,0,-1.3333333,3021.2891,1936.7175)"
       clip-path="url(#clipPath12)"
       inkscape:label="Outline" />
  </g>
</svg>
